<svg width="164" height="14" viewBox="0 0 164 14" fill="none" xmlns="http://www.w3.org/2000/svg">
<path d="M0.519047 5.776C0.519047 4.944 0.699047 4.204 1.05905 3.556C1.41905 2.9 1.91905 2.392 2.55905 2.032C3.20705 1.664 3.93905 1.48 4.75505 1.48C5.75505 1.48 6.61105 1.744 7.32305 2.272C8.03505 2.8 8.51105 3.52 8.75105 4.432H6.49505C6.32705 4.08 6.08705 3.812 5.77505 3.628C5.47105 3.444 5.12305 3.352 4.73105 3.352C4.09905 3.352 3.58705 3.572 3.19505 4.012C2.80305 4.452 2.60705 5.04 2.60705 5.776C2.60705 6.512 2.80305 7.1 3.19505 7.54C3.58705 7.98 4.09905 8.2 4.73105 8.2C5.12305 8.2 5.47105 8.108 5.77505 7.924C6.08705 7.74 6.32705 7.472 6.49505 7.12H8.75105C8.51105 8.032 8.03505 8.752 7.32305 9.28C6.61105 9.8 5.75505 10.06 4.75505 10.06C3.93905 10.06 3.20705 9.88 2.55905 9.52C1.91905 9.152 1.41905 8.644 1.05905 7.996C0.699047 7.348 0.519047 6.608 0.519047 5.776ZM9.59967 6.64C9.59967 5.952 9.72767 5.348 9.98367 4.828C10.2477 4.308 10.6037 3.908 11.0517 3.628C11.4997 3.348 11.9997 3.208 12.5517 3.208C13.0237 3.208 13.4357 3.304 13.7877 3.496C14.1477 3.688 14.4237 3.94 14.6157 4.252V3.304H16.6677V10H14.6157V9.052C14.4157 9.364 14.1357 9.616 13.7757 9.808C13.4237 10 13.0117 10.096 12.5397 10.096C11.9957 10.096 11.4997 9.956 11.0517 9.676C10.6037 9.388 10.2477 8.984 9.98367 8.464C9.72767 7.936 9.59967 7.328 9.59967 6.64ZM14.6157 6.652C14.6157 6.14 14.4717 5.736 14.1837 5.44C13.9037 5.144 13.5597 4.996 13.1517 4.996C12.7437 4.996 12.3957 5.144 12.1077 5.44C11.8277 5.728 11.6877 6.128 11.6877 6.64C11.6877 7.152 11.8277 7.56 12.1077 7.864C12.3957 8.16 12.7437 8.308 13.1517 8.308C13.5597 8.308 13.9037 8.16 14.1837 7.864C14.4717 7.568 14.6157 7.164 14.6157 6.652ZM20.2042 4.42C20.4442 4.052 20.7442 3.764 21.1042 3.556C21.4642 3.34 21.8642 3.232 22.3042 3.232V5.404H21.7402C21.2282 5.404 20.8442 5.516 20.5882 5.74C20.3322 5.956 20.2042 6.34 20.2042 6.892V10H18.1522V3.304H20.2042V4.42ZM26.333 10.096C25.677 10.096 25.085 9.956 24.557 9.676C24.037 9.396 23.625 8.996 23.321 8.476C23.025 7.956 22.877 7.348 22.877 6.652C22.877 5.964 23.029 5.36 23.333 4.84C23.637 4.312 24.053 3.908 24.581 3.628C25.109 3.348 25.701 3.208 26.357 3.208C27.013 3.208 27.605 3.348 28.133 3.628C28.661 3.908 29.077 4.312 29.381 4.84C29.685 5.36 29.837 5.964 29.837 6.652C29.837 7.34 29.681 7.948 29.369 8.476C29.065 8.996 28.645 9.396 28.109 9.676C27.581 9.956 26.989 10.096 26.333 10.096ZM26.333 8.32C26.725 8.32 27.057 8.176 27.329 7.888C27.609 7.6 27.749 7.188 27.749 6.652C27.749 6.116 27.613 5.704 27.341 5.416C27.077 5.128 26.749 4.984 26.357 4.984C25.957 4.984 25.625 5.128 25.361 5.416C25.097 5.696 24.965 6.108 24.965 6.652C24.965 7.188 25.093 7.6 25.349 7.888C25.613 8.176 25.941 8.32 26.333 8.32ZM32.9776 1.12V10H30.9256V1.12H32.9776ZM35.4967 2.608C35.1367 2.608 34.8407 2.504 34.6087 2.296C34.3847 2.08 34.2727 1.816 34.2727 1.504C34.2727 1.184 34.3847 0.92 34.6087 0.711999C34.8407 0.495999 35.1367 0.387999 35.4967 0.387999C35.8487 0.387999 36.1367 0.495999 36.3607 0.711999C36.5927 0.92 36.7087 1.184 36.7087 1.504C36.7087 1.816 36.5927 2.08 36.3607 2.296C36.1367 2.504 35.8487 2.608 35.4967 2.608ZM36.5167 3.304V10H34.4647V3.304H36.5167ZM42.0838 3.232C42.8678 3.232 43.4918 3.488 43.9558 4C44.4278 4.504 44.6638 5.2 44.6638 6.088V10H42.6238V6.364C42.6238 5.916 42.5078 5.568 42.2758 5.32C42.0438 5.072 41.7318 4.948 41.3398 4.948C40.9478 4.948 40.6358 5.072 40.4038 5.32C40.1718 5.568 40.0558 5.916 40.0558 6.364V10H38.0038V3.304H40.0558V4.192C40.2638 3.896 40.5438 3.664 40.8958 3.496C41.2478 3.32 41.6438 3.232 42.0838 3.232ZM45.6817 6.64C45.6817 5.952 45.8097 5.348 46.0657 4.828C46.3297 4.308 46.6857 3.908 47.1337 3.628C47.5817 3.348 48.0817 3.208 48.6337 3.208C49.1057 3.208 49.5177 3.304 49.8697 3.496C50.2297 3.688 50.5057 3.94 50.6977 4.252V3.304H52.7497V10H50.6977V9.052C50.4977 9.364 50.2177 9.616 49.8577 9.808C49.5057 10 49.0937 10.096 48.6217 10.096C48.0777 10.096 47.5817 9.956 47.1337 9.676C46.6857 9.388 46.3297 8.984 46.0657 8.464C45.8097 7.936 45.6817 7.328 45.6817 6.64ZM50.6977 6.652C50.6977 6.14 50.5537 5.736 50.2657 5.44C49.9857 5.144 49.6417 4.996 49.2337 4.996C48.8257 4.996 48.4777 5.144 48.1897 5.44C47.9097 5.728 47.7697 6.128 47.7697 6.64C47.7697 7.152 47.9097 7.56 48.1897 7.864C48.4777 8.16 48.8257 8.308 49.2337 8.308C49.6417 8.308 49.9857 8.16 50.2657 7.864C50.5537 7.568 50.6977 7.164 50.6977 6.652ZM56.4292 5.776C56.4292 4.944 56.6092 4.204 56.9692 3.556C57.3292 2.9 57.8292 2.392 58.4692 2.032C59.1172 1.664 59.8492 1.48 60.6652 1.48C61.6652 1.48 62.5212 1.744 63.2332 2.272C63.9452 2.8 64.4212 3.52 64.6612 4.432H62.4052C62.2372 4.08 61.9972 3.812 61.6852 3.628C61.3812 3.444 61.0332 3.352 60.6412 3.352C60.0092 3.352 59.4972 3.572 59.1052 4.012C58.7132 4.452 58.5172 5.04 58.5172 5.776C58.5172 6.512 58.7132 7.1 59.1052 7.54C59.4972 7.98 60.0092 8.2 60.6412 8.2C61.0332 8.2 61.3812 8.108 61.6852 7.924C61.9972 7.74 62.2372 7.472 62.4052 7.12H64.6612C64.4212 8.032 63.9452 8.752 63.2332 9.28C62.5212 9.8 61.6652 10.06 60.6652 10.06C59.8492 10.06 59.1172 9.88 58.4692 9.52C57.8292 9.152 57.3292 8.644 56.9692 7.996C56.6092 7.348 56.4292 6.608 56.4292 5.776ZM70.0338 3.232C70.8018 3.232 71.4178 3.488 71.8818 4C72.3458 4.504 72.5778 5.2 72.5778 6.088V10H70.5378V6.364C70.5378 5.916 70.4218 5.568 70.1898 5.32C69.9578 5.072 69.6458 4.948 69.2538 4.948C68.8618 4.948 68.5498 5.072 68.3178 5.32C68.0858 5.568 67.9698 5.916 67.9698 6.364V10H65.9178V1.12H67.9698V4.204C68.1778 3.908 68.4618 3.672 68.8218 3.496C69.1818 3.32 69.5858 3.232 70.0338 3.232ZM73.5958 6.64C73.5958 5.952 73.7238 5.348 73.9798 4.828C74.2438 4.308 74.5998 3.908 75.0478 3.628C75.4958 3.348 75.9958 3.208 76.5478 3.208C77.0198 3.208 77.4318 3.304 77.7838 3.496C78.1438 3.688 78.4198 3.94 78.6118 4.252V3.304H80.6638V10H78.6118V9.052C78.4118 9.364 78.1318 9.616 77.7718 9.808C77.4198 10 77.0078 10.096 76.5358 10.096C75.9918 10.096 75.4958 9.956 75.0478 9.676C74.5998 9.388 74.2438 8.984 73.9798 8.464C73.7238 7.936 73.5958 7.328 73.5958 6.64ZM78.6118 6.652C78.6118 6.14 78.4678 5.736 78.1798 5.44C77.8998 5.144 77.5558 4.996 77.1478 4.996C76.7398 4.996 76.3918 5.144 76.1038 5.44C75.8238 5.728 75.6838 6.128 75.6838 6.64C75.6838 7.152 75.8238 7.56 76.1038 7.864C76.3918 8.16 76.7398 8.308 77.1478 8.308C77.5558 8.308 77.8998 8.16 78.1798 7.864C78.4678 7.568 78.6118 7.164 78.6118 6.652ZM78.7678 1.636L75.8758 2.848V1.432L78.7678 0.0399995V1.636ZM85.1603 8.08L86.6123 3.304H88.7963L86.4203 10H83.8883L81.5123 3.304H83.7083L85.1603 8.08ZM95.972 6.544C95.972 6.736 95.96 6.936 95.936 7.144H91.292C91.324 7.56 91.456 7.88 91.688 8.104C91.928 8.32 92.22 8.428 92.564 8.428C93.076 8.428 93.432 8.212 93.632 7.78H95.816C95.704 8.22 95.5 8.616 95.204 8.968C94.916 9.32 94.552 9.596 94.112 9.796C93.672 9.996 93.18 10.096 92.636 10.096C91.98 10.096 91.396 9.956 90.884 9.676C90.372 9.396 89.972 8.996 89.684 8.476C89.396 7.956 89.252 7.348 89.252 6.652C89.252 5.956 89.392 5.348 89.672 4.828C89.96 4.308 90.36 3.908 90.872 3.628C91.384 3.348 91.972 3.208 92.636 3.208C93.284 3.208 93.86 3.344 94.364 3.616C94.868 3.888 95.26 4.276 95.54 4.78C95.828 5.284 95.972 5.872 95.972 6.544ZM93.872 6.004C93.872 5.652 93.752 5.372 93.512 5.164C93.272 4.956 92.972 4.852 92.612 4.852C92.268 4.852 91.976 4.952 91.736 5.152C91.504 5.352 91.36 5.636 91.304 6.004H93.872ZM98.9745 8.308H101.879V10H96.6825V8.368L99.4665 4.996H96.7065V3.304H101.819V4.936L98.9745 8.308ZM111.131 4.024C111.131 4.744 110.895 5.324 110.423 5.764C109.951 6.204 109.243 6.424 108.299 6.424H106.607V10H105.767V1.612H108.299C109.235 1.612 109.939 1.832 110.411 2.272C110.891 2.712 111.131 3.296 111.131 4.024ZM108.299 5.704C109.611 5.704 110.267 5.144 110.267 4.024C110.267 3.464 110.111 3.04 109.799 2.752C109.487 2.464 108.987 2.32 108.299 2.32H106.607V5.704H108.299ZM114.796 10.096C114.044 10.096 113.428 9.924 112.948 9.58C112.476 9.228 112.212 8.752 112.156 8.152H113.02C113.06 8.52 113.232 8.82 113.536 9.052C113.848 9.276 114.264 9.388 114.784 9.388C115.24 9.388 115.596 9.28 115.852 9.064C116.116 8.848 116.248 8.58 116.248 8.26C116.248 8.036 116.176 7.852 116.032 7.708C115.888 7.564 115.704 7.452 115.48 7.372C115.264 7.284 114.968 7.192 114.592 7.096C114.104 6.968 113.708 6.84 113.404 6.712C113.1 6.584 112.84 6.396 112.624 6.148C112.416 5.892 112.312 5.552 112.312 5.128C112.312 4.808 112.408 4.512 112.6 4.24C112.792 3.968 113.064 3.752 113.416 3.592C113.768 3.432 114.168 3.352 114.616 3.352C115.32 3.352 115.888 3.532 116.32 3.892C116.752 4.244 116.984 4.732 117.016 5.356H116.176C116.152 4.972 116 4.664 115.72 4.432C115.448 4.192 115.072 4.072 114.592 4.072C114.168 4.072 113.824 4.172 113.56 4.372C113.296 4.572 113.164 4.82 113.164 5.116C113.164 5.372 113.24 5.584 113.392 5.752C113.552 5.912 113.748 6.04 113.98 6.136C114.212 6.224 114.524 6.324 114.916 6.436C115.388 6.564 115.764 6.688 116.044 6.808C116.324 6.928 116.564 7.104 116.764 7.336C116.964 7.568 117.068 7.876 117.076 8.26C117.076 8.612 116.98 8.928 116.788 9.208C116.596 9.48 116.328 9.696 115.984 9.856C115.64 10.016 115.244 10.096 114.796 10.096ZM119.077 2.212C118.909 2.212 118.765 2.152 118.645 2.032C118.525 1.912 118.465 1.764 118.465 1.588C118.465 1.412 118.525 1.268 118.645 1.156C118.765 1.036 118.909 0.976 119.077 0.976C119.245 0.976 119.389 1.036 119.509 1.156C119.629 1.268 119.689 1.412 119.689 1.588C119.689 1.764 119.629 1.912 119.509 2.032C119.389 2.152 119.245 2.212 119.077 2.212ZM119.497 3.448V10H118.657V3.448H119.497ZM121.015 6.724C121.015 6.044 121.151 5.452 121.423 4.948C121.695 4.436 122.071 4.044 122.551 3.772C123.031 3.492 123.579 3.352 124.195 3.352C125.003 3.352 125.667 3.552 126.187 3.952C126.715 4.352 127.055 4.896 127.207 5.584H126.307C126.195 5.112 125.951 4.744 125.575 4.48C125.207 4.208 124.747 4.072 124.195 4.072C123.755 4.072 123.359 4.172 123.007 4.372C122.655 4.572 122.375 4.872 122.167 5.272C121.967 5.664 121.867 6.148 121.867 6.724C121.867 7.3 121.967 7.788 122.167 8.188C122.375 8.588 122.655 8.888 123.007 9.088C123.359 9.288 123.755 9.388 124.195 9.388C124.747 9.388 125.207 9.256 125.575 8.992C125.951 8.72 126.195 8.344 126.307 7.864H127.207C127.055 8.536 126.715 9.076 126.187 9.484C125.659 9.892 124.995 10.096 124.195 10.096C123.579 10.096 123.031 9.96 122.551 9.688C122.071 9.408 121.695 9.016 121.423 8.512C121.151 8 121.015 7.404 121.015 6.724ZM131.627 10.096C131.011 10.096 130.455 9.96 129.959 9.688C129.471 9.408 129.083 9.016 128.795 8.512C128.515 8 128.375 7.404 128.375 6.724C128.375 6.044 128.519 5.452 128.807 4.948C129.095 4.436 129.487 4.044 129.983 3.772C130.479 3.492 131.035 3.352 131.651 3.352C132.267 3.352 132.823 3.492 133.319 3.772C133.823 4.044 134.215 4.436 134.495 4.948C134.783 5.452 134.927 6.044 134.927 6.724C134.927 7.396 134.783 7.988 134.495 8.5C134.207 9.012 133.811 9.408 133.307 9.688C132.803 9.96 132.243 10.096 131.627 10.096ZM131.627 9.364C132.059 9.364 132.459 9.268 132.827 9.076C133.195 8.876 133.491 8.58 133.715 8.188C133.947 7.788 134.063 7.3 134.063 6.724C134.063 6.148 133.951 5.664 133.727 5.272C133.503 4.872 133.207 4.576 132.839 4.384C132.471 4.184 132.071 4.084 131.639 4.084C131.207 4.084 130.807 4.184 130.439 4.384C130.071 4.576 129.775 4.872 129.551 5.272C129.335 5.664 129.227 6.148 129.227 6.724C129.227 7.3 129.335 7.788 129.551 8.188C129.775 8.58 130.067 8.876 130.427 9.076C130.795 9.268 131.195 9.364 131.627 9.364ZM137.298 1.12V10H136.458V1.12H137.298ZM142.068 10.096C141.452 10.096 140.896 9.96 140.4 9.688C139.912 9.408 139.524 9.016 139.236 8.512C138.956 8 138.816 7.404 138.816 6.724C138.816 6.044 138.96 5.452 139.248 4.948C139.536 4.436 139.928 4.044 140.424 3.772C140.92 3.492 141.476 3.352 142.092 3.352C142.708 3.352 143.264 3.492 143.76 3.772C144.264 4.044 144.656 4.436 144.936 4.948C145.224 5.452 145.368 6.044 145.368 6.724C145.368 7.396 145.224 7.988 144.936 8.5C144.648 9.012 144.252 9.408 143.748 9.688C143.244 9.96 142.684 10.096 142.068 10.096ZM142.068 9.364C142.5 9.364 142.9 9.268 143.268 9.076C143.636 8.876 143.932 8.58 144.156 8.188C144.388 7.788 144.504 7.3 144.504 6.724C144.504 6.148 144.392 5.664 144.168 5.272C143.944 4.872 143.648 4.576 143.28 4.384C142.912 4.184 142.512 4.084 142.08 4.084C141.648 4.084 141.248 4.184 140.88 4.384C140.512 4.576 140.216 4.872 139.992 5.272C139.776 5.664 139.668 6.148 139.668 6.724C139.668 7.3 139.776 7.788 139.992 8.188C140.216 8.58 140.508 8.876 140.868 9.076C141.236 9.268 141.636 9.364 142.068 9.364ZM149.647 3.352C150.263 3.352 150.799 3.496 151.255 3.784C151.711 4.072 152.039 4.436 152.239 4.876V3.448H153.079V10.168C153.079 10.768 152.947 11.3 152.683 11.764C152.427 12.228 152.067 12.584 151.603 12.832C151.139 13.088 150.611 13.216 150.019 13.216C149.179 13.216 148.479 13.016 147.919 12.616C147.367 12.216 147.023 11.672 146.887 10.984H147.715C147.859 11.44 148.131 11.804 148.531 12.076C148.939 12.348 149.435 12.484 150.019 12.484C150.443 12.484 150.823 12.392 151.159 12.208C151.495 12.032 151.759 11.768 151.951 11.416C152.143 11.064 152.239 10.648 152.239 10.168V8.548C152.031 8.996 151.699 9.368 151.243 9.664C150.795 9.952 150.263 10.096 149.647 10.096C149.047 10.096 148.507 9.956 148.027 9.676C147.555 9.396 147.183 9 146.911 8.488C146.647 7.976 146.515 7.384 146.515 6.712C146.515 6.04 146.647 5.452 146.911 4.948C147.183 4.436 147.555 4.044 148.027 3.772C148.507 3.492 149.047 3.352 149.647 3.352ZM152.239 6.724C152.239 6.196 152.131 5.732 151.915 5.332C151.699 4.932 151.403 4.624 151.027 4.408C150.659 4.192 150.251 4.084 149.803 4.084C149.339 4.084 148.923 4.188 148.555 4.396C148.187 4.604 147.895 4.908 147.679 5.308C147.471 5.7 147.367 6.168 147.367 6.712C147.367 7.248 147.471 7.72 147.679 8.128C147.895 8.528 148.187 8.836 148.555 9.052C148.923 9.26 149.339 9.364 149.803 9.364C150.251 9.364 150.659 9.256 151.027 9.04C151.403 8.824 151.699 8.516 151.915 8.116C152.131 7.716 152.239 7.252 152.239 6.724ZM155.837 3.448V10H154.997V3.448H155.837ZM156.521 1.516L154.061 2.944V2.296L156.521 0.76V1.516ZM157.355 6.712C157.355 6.04 157.487 5.452 157.751 4.948C158.023 4.436 158.395 4.044 158.867 3.772C159.347 3.492 159.887 3.352 160.487 3.352C161.111 3.352 161.647 3.496 162.095 3.784C162.551 4.072 162.879 4.44 163.079 4.888V3.448H163.919V10H163.079V8.548C162.871 8.996 162.539 9.368 162.083 9.664C161.635 9.952 161.099 10.096 160.475 10.096C159.883 10.096 159.347 9.956 158.867 9.676C158.395 9.396 158.023 9 157.751 8.488C157.487 7.976 157.355 7.384 157.355 6.712ZM163.079 6.724C163.079 6.196 162.971 5.732 162.755 5.332C162.539 4.932 162.243 4.624 161.867 4.408C161.499 4.192 161.091 4.084 160.643 4.084C160.179 4.084 159.763 4.188 159.395 4.396C159.027 4.604 158.735 4.908 158.519 5.308C158.311 5.7 158.207 6.168 158.207 6.712C158.207 7.248 158.311 7.72 158.519 8.128C158.735 8.528 159.027 8.836 159.395 9.052C159.763 9.26 160.179 9.364 160.643 9.364C161.091 9.364 161.499 9.256 161.867 9.04C162.243 8.824 162.539 8.516 162.755 8.116C162.971 7.716 163.079 7.252 163.079 6.724Z" fill="#66335E"/>
</svg>
